<!-- Generated by IcoMoon.io -->
<svg version="1.1" xmlns="http://www.w3.org/2000/svg" width="75" height="32" viewBox="0 0 75 32">
<title>advantages-technologies</title>
<path fill="#f4f4fd" d="M1.143 0h73.143c0.631 0 1.143 0.512 1.143 1.143v29.714c0 0.631-0.512 1.143-1.143 1.143h-73.143c-0.631 0-1.143-0.512-1.143-1.143v-29.714c0-0.631 0.512-1.143 1.143-1.143z"></path>
<path fill="#4d5ae5" d="M46.842 9.442c-0.037-0.109-0.13-0.19-0.244-0.207l-0.002-0-1.091-0.159-0.489-0.989c-0.103-0.209-0.444-0.209-0.547 0l-0.489 0.989-1.092 0.159c-0.116 0.017-0.21 0.098-0.246 0.205l-0.001 0.002c-0.035 0.11-0.006 0.231 0.077 0.313l0.79 0.77-0.187 1.087c-0.019 0.114 0.027 0.23 0.121 0.298 0.095 0.069 0.219 0.077 0.321 0.023l0.977-0.513 0.977 0.513c0.041 0.022 0.090 0.035 0.142 0.035 0.067 0 0.129-0.022 0.18-0.059l-0.001 0.001c0.094-0.069 0.141-0.184 0.121-0.298l-0.186-1.087 0.79-0.77c0.057-0.056 0.092-0.133 0.092-0.218 0-0.034-0.005-0.066-0.015-0.096l0.001 0.002zM45.435 10.201c-0.071 0.070-0.105 0.171-0.087 0.27l0.109 0.637-0.572-0.3c-0.041-0.022-0.090-0.035-0.142-0.035s-0.101 0.013-0.144 0.036l0.002-0.001-0.572 0.3 0.109-0.637c0.003-0.016 0.004-0.033 0.004-0.052 0-0.085-0.035-0.163-0.092-0.218l-0-0-0.463-0.451 0.639-0.093c0.099-0.014 0.185-0.077 0.229-0.167l0.286-0.579 0.286 0.579c0.045 0.090 0.13 0.152 0.229 0.167l0.639 0.093-0.462 0.451zM43.505 18.584h-0.609v0.61h0.609v-0.61zM43.505 19.803h-0.609v0.61h0.609v-0.61zM44.114 19.194h-0.609v0.609h0.609v-0.609zM42.895 19.194h-0.61v0.609h0.61v-0.609zM41.371 21.937h-0.609v0.609h0.609v-0.609zM41.371 23.156h-0.609v0.609h0.609v-0.609zM41.981 22.546h-0.61v0.61h0.61v-0.61zM40.762 22.546h-0.61v0.61h0.61v-0.61zM37.714 20.717h-0.609v0.61h0.609v-0.61zM37.714 21.937h-0.609v0.609h0.609v-0.609zM38.324 21.327h-0.609v0.61h0.609v-0.61zM37.105 21.327h-0.61v0.61h0.61v-0.61zM31.924 10.355h-0.609v0.609h0.609v-0.609zM31.924 11.574h-0.609v0.61h0.609v-0.609zM32.533 10.965h-0.609v0.61h0.609v-0.61zM31.314 10.965h-0.61v0.61h0.61v-0.61z"></path>
<path fill="#2e2f42" d="M42.694 14.948c-0.16-0.215-0.399-0.364-0.674-0.402l-0.005-0.001c-0.044-0.007-0.094-0.010-0.145-0.010-0.235 0-0.451 0.080-0.623 0.214l0.002-0.002-0.715 0.548-1.085 0.81-0.776-0.309c1.383-0.621 2.351-2.005 2.351-3.611 0-2.185-1.784-3.962-3.978-3.962s-3.978 1.777-3.978 3.962c0 0.792 0.237 1.528 0.64 2.148l-1.582-0.014c-0.005 0-0.009 0.002-0.013 0.003-0.032 0.002-0.062 0.008-0.091 0.018l0.002-0.001c-0.007 0.003-0.015 0.004-0.022 0.007-0.003 0.001-0.007 0.002-0.011 0.004l-1.848 0.912-1.082 0.521c-0.014 0.006-0.026 0.013-0.037 0.020l0.001-0c-0.275 0.185-0.454 0.495-0.454 0.847 0 0.17 0.041 0.329 0.115 0.47l-0.003-0.006c0.125 0.242 0.338 0.424 0.596 0.506l0.007 0.002c0.092 0.030 0.197 0.048 0.307 0.048 0.176 0 0.342-0.045 0.486-0.124l-0.005 0.003 0.793-0.422 1.294-0.668 0.775-0.004-3.875 3.857c-0.173 0.171-0.28 0.408-0.28 0.67 0 0.001 0 0.002 0 0.003v-0c0.001 0.525 0.427 0.951 0.952 0.951 0.001 0 0.001 0 0.002 0h-0c0.245 0 0.488-0.093 0.675-0.277l0.751-0.748 0.995-0.743 0.515 0.513-1.773 1.765c-0.173 0.171-0.28 0.408-0.28 0.671 0 0.001 0 0.002 0 0.003v-0c0 0.254 0.099 0.493 0.28 0.673 0.186 0.185 0.43 0.277 0.674 0.277 0.001 0 0.001 0 0.002 0 0.262 0 0.5-0.106 0.672-0.277l-0 0 2.565-2.555c0.004-0.004 0.009-0.005 0.013-0.009l2.952-3.233 1.983 0.282c0.012 0.002 0.025 0.003 0.039 0.003 0.040 0 0.078-0.008 0.113-0.022l-0.002 0.001c0.010-0.004 0.019-0.009 0.028-0.013 0.011-0.005 0.023-0.009 0.033-0.015l1.836-1.219c0.007-0.005 0.010-0.012 0.017-0.017s0.016-0.008 0.023-0.014l0.727-0.681c0.198-0.186 0.322-0.45 0.322-0.743 0-0.229-0.075-0.44-0.203-0.61l0.002 0.003zM29.789 17.011c-0.099 0.053-0.211 0.064-0.319 0.030-0.168-0.053-0.288-0.208-0.288-0.39 0-0.135 0.065-0.254 0.166-0.329l0.001-0.001 0.751-0.361 0.181 0.528 0.076 0.222-0.567 0.301zM31.787 15.967l-0.885 0.457-0.251-0.733 1.158-0.571-0.023 0.848zM40.415 12.184c0 0.525-0.125 1.020-0.342 1.463l-2.389-1.085c-0.025-0.329-0.196-0.613-0.447-0.791l-0.003-0.002 0.837-2.777c1.359 0.432 2.345 1.699 2.345 3.193zM33.679 12.184c0-1.849 1.511-3.352 3.368-3.352 0.145 0 0.286 0.012 0.426 0.030l-0.818 2.716c-0.011 0-0.021-0.003-0.033-0.003-0 0-0 0-0.001 0-0.59 0-1.068 0.477-1.069 1.066v0c0.002 0.589 0.48 1.067 1.069 1.067 0 0 0 0 0.001 0h-0c0.397 0 0.74-0.219 0.925-0.54l2.207 1.003c-0.614 0.827-1.597 1.366-2.707 1.366-1.857 0-3.368-1.504-3.368-3.353zM37.083 12.641c0 0.252-0.207 0.457-0.461 0.457-0 0-0.001 0-0.001 0-0.253 0-0.458-0.204-0.459-0.457v-0c0-0.252 0.207-0.457 0.461-0.457s0.461 0.205 0.461 0.457zM29.98 21.227c-0.063 0.062-0.149 0.1-0.244 0.1s-0.181-0.038-0.244-0.1l0 0c-0.062-0.062-0.101-0.147-0.101-0.241s0.038-0.18 0.101-0.241l0-0 0.55-0.548 0.486 0.484-0.548 0.546zM31.816 23.36c-0.063 0.062-0.149 0.101-0.244 0.101s-0.181-0.038-0.244-0.1l0 0c-0.062-0.061-0.101-0.147-0.101-0.241s0.039-0.18 0.101-0.241l0-0 0.55-0.548 0.487 0.484-0.548 0.546zM33.806 21.378c-0 0-0.001 0-0.001 0.001l-1.009 1.006-0.487-0.484 1.008-1.003c0 0 0.001 0 0.001-0.001 0.023-0.023 0.037-0.050 0.051-0.077 0.004-0.008 0.012-0.015 0.015-0.023 0.010-0.024 0.011-0.049 0.015-0.074 0.002-0.014 0.008-0.027 0.008-0.041 0-0.020-0.007-0.040-0.011-0.060-0.004-0.018-0.004-0.037-0.011-0.055-0.012-0.029-0.031-0.054-0.052-0.079-0.006-0.007-0.008-0.015-0.014-0.022h-0l-0.001-0.001-0.918-0.914c-0.010-0.010-0.022-0.014-0.033-0.022-0.015-0.012-0.031-0.023-0.048-0.032l-0.002-0.001c-0.015-0.007-0.033-0.014-0.051-0.018l-0.002-0c-0.017-0.005-0.037-0.009-0.058-0.011l-0.001-0c-0.004-0-0.008-0-0.012-0-0.015 0-0.030 0.001-0.044 0.003l0.002-0c-0.022 0.002-0.042 0.006-0.062 0.012l0.002-0.001c-0.021 0.007-0.038 0.016-0.055 0.026l0.001-0.001c-0.011 0.006-0.024 0.009-0.035 0.016l-1.013 0.757-0.515-0.513 1.371-1.364 2.492 2.451-0.53 0.525zM37.702 17.368c-0.009-0.001-0.017 0.002-0.026 0.002-0.005-0-0.010-0-0.016-0-0.036 0-0.071 0.006-0.103 0.017l0.002-0.001c-0.021 0.008-0.039 0.017-0.056 0.028l0.001-0.001c-0.018 0.011-0.033 0.022-0.048 0.035l0-0c-0.007 0.006-0.016 0.009-0.023 0.017l-2.685 2.941-2.473-2.433 1.619-1.61c0.055-0.055 0.089-0.131 0.089-0.216 0-0.168-0.136-0.305-0.305-0.305-0.001 0-0.001 0-0.002 0h0l-1.268 0.007 0.016-0.919 1.774 0.015c0.722 0.741 1.73 1.201 2.845 1.201 0.001 0 0.001 0 0.002 0h-0c0.25 0 0.494-0.026 0.731-0.070 0.023 0.018 0.045 0.037 0.074 0.049l1.377 0.549 0.087 0.433 0.102 0.506-1.716-0.244zM40.012 17.47l-0.179-0.89 0.827-0.617 0.541 0.718-1.189 0.789zM42.157 15.852l-0.479 0.449-0.532-0.707 0.475-0.364c0.089-0.069 0.2-0.096 0.31-0.082 0.201 0.029 0.354 0.2 0.354 0.406 0 0.117-0.049 0.223-0.128 0.297l-0 0z"></path>
<path fill="#2e2f42" d="M36.344 17.454l-1.225-1.219c-0.055-0.055-0.131-0.089-0.215-0.089s-0.16 0.034-0.215 0.089v0l-1.224 1.219c-0.055 0.055-0.089 0.132-0.089 0.216s0.034 0.161 0.089 0.216v0l1.224 1.219c0.055 0.055 0.131 0.089 0.215 0.089s0.16-0.034 0.215-0.089v0l1.225-1.219c0.055-0.055 0.090-0.132 0.090-0.216s-0.034-0.161-0.090-0.216v0zM34.905 18.459l-0.792-0.789 0.792-0.789 0.793 0.789-0.793 0.789zM38.379 9.755l-0.147 0.592c0.041 0.010 0.993 0.258 0.993 1.228h0.609c0-1.153-0.952-1.695-1.455-1.82zM39.835 12.184h-0.609v0.61h0.609v-0.61z"></path>
</svg>
