<!-- Generated by IcoMoon.io -->
<svg version="1.1" xmlns="http://www.w3.org/2000/svg" width="75" height="32" viewBox="0 0 75 32">
<title>advantages-punctuality</title>
<path fill="#f4f4fd" d="M1.143 0h73.143c0.631 0 1.143 0.512 1.143 1.143v29.714c0 0.631-0.512 1.143-1.143 1.143h-73.143c-0.631 0-1.143-0.512-1.143-1.143v-29.714c0-0.631 0.512-1.143 1.143-1.143z"></path>
<path fill="#2e2f42" d="M46.455 15.601c-0.001-4.83-3.917-8.744-8.747-8.743s-8.745 3.917-8.744 8.747c0.001 3.879 2.527 7.167 6.024 8.312l0.062 0.017c0.035 0.011 0.071 0.017 0.107 0.016 0.069 0 0.137-0.019 0.196-0.053 0.077-0.046 0.135-0.118 0.162-0.204l2.209-7c0.601-0.003 1.087-0.491 1.087-1.093 0-0.604-0.489-1.093-1.093-1.093-0.002 0-0.004 0-0.006 0h0c-0.171 0.001-0.332 0.041-0.475 0.112l0.006-0.003-2.918-2.918c-0.066-0.066-0.157-0.107-0.258-0.107-0.201 0-0.364 0.163-0.364 0.364 0 0.101 0.041 0.192 0.107 0.258v0l2.916 2.919c-0.069 0.138-0.109 0.3-0.109 0.472 0 0.344 0.162 0.65 0.413 0.846l0.002 0.002-2.104 6.67c-4.159-1.532-6.288-6.145-4.756-10.304s6.145-6.288 10.304-4.756c4.159 1.532 6.288 6.145 4.756 10.304-0.769 2.046-2.288 3.661-4.214 4.536l-0.050 0.020-0.227-1.071c-0.036-0.166-0.182-0.289-0.356-0.289-0.093 0-0.179 0.035-0.243 0.093l0-0-2.193 1.957c-0.075 0.067-0.122 0.164-0.122 0.272 0 0.162 0.106 0.299 0.252 0.347l0.003 0.001 2.799 0.893c0.033 0.011 0.072 0.018 0.112 0.018 0.201 0 0.364-0.163 0.364-0.364 0-0.027-0.003-0.053-0.008-0.078l0 0.002-0.223-1.051c3.159-1.357 5.331-4.441 5.331-8.032 0-0.007 0-0.013-0-0.020v0.001zM37.71 15.236c0.201 0 0.365 0.163 0.365 0.365s-0.163 0.365-0.365 0.365v0c-0.201 0-0.365-0.163-0.365-0.365s0.163-0.365 0.365-0.365v0zM38.91 23.73l1.248-1.113 0.345 1.623-1.593-0.51z"></path>
<path fill="#4d5ae5" d="M37.345 8.677v0.729c0 0.201 0.163 0.364 0.364 0.364s0.364-0.163 0.364-0.364v0-0.729c-0.006-0.197-0.167-0.354-0.364-0.354s-0.359 0.157-0.364 0.354v0.001zM30.786 15.236c-0.201 0-0.364 0.163-0.364 0.364s0.163 0.364 0.364 0.364h0.729c0.201 0 0.364-0.163 0.364-0.364s-0.163-0.364-0.364-0.364h-0.729zM44.633 15.965c0.201 0 0.364-0.163 0.364-0.364s-0.163-0.364-0.364-0.364h-0.729c-0.201 0-0.364 0.163-0.364 0.364s0.163 0.364 0.364 0.364h0.729z"></path>
</svg>
