<!-- Generated by IcoMoon.io -->
<svg version="1.1" xmlns="http://www.w3.org/2000/svg" width="75" height="32" viewBox="0 0 75 32">
<title>advantages-strategy</title>
<path fill="#f4f4fd" d="M1.143 0h73.143c0.631 0 1.143 0.512 1.143 1.143v29.714c0 0.631-0.512 1.143-1.143 1.143h-73.143c-0.631 0-1.143-0.512-1.143-1.143v-29.714c0-0.631 0.512-1.143 1.143-1.143z"></path>
<path fill="#2e2f42" d="M46.156 19.484l-4.825-4.86 0.535-2.637c0.138 0.054 0.285 0.082 0.433 0.083h0.004c0.004 0 0.009 0 0.015 0 0.681 0 1.234-0.552 1.234-1.234s-0.552-1.234-1.234-1.234c-0.681 0-1.234 0.552-1.234 1.234 0 0.148 0.026 0.29 0.074 0.422l-0.003-0.009-2.834 0.346-4.623-4.647c-0.055-0.056-0.131-0.091-0.215-0.091h-0c-0.080 0.001-0.157 0.032-0.213 0.089l-0.864 0.859c-0.055 0.055-0.089 0.131-0.089 0.216s0.034 0.16 0.089 0.216v0l0.465 0.471c-0.653 1.178-1.038 2.584-1.038 4.079 0 2.346 0.946 4.471 2.478 6.014l-0.001-0.001c0.024 0.023 0.053 0.042 0.083 0.056-0.018 0.094-0.029 0.202-0.030 0.312v3.536h-3.657c-0.841 0.001-1.523 0.683-1.524 1.524v0.61c0 0.169 0.137 0.305 0.305 0.305h14.019c0.168 0 0.305-0.137 0.305-0.305v-0.609c-0.001-0.841-0.683-1.523-1.524-1.524h-3.657v-1.567c0.573 0.12 1.157 0.181 1.742 0.183 1.474-0.002 2.86-0.379 4.067-1.041l-0.044 0.022 0.467 0.47c0.057 0.058 0.134 0.091 0.215 0.091 0.080-0.001 0.157-0.032 0.213-0.089l0.864-0.859c0.055-0.055 0.089-0.131 0.089-0.216s-0.034-0.16-0.089-0.216v0zM41.874 10.419c0.11-0.109 0.262-0.177 0.43-0.177 0.337 0 0.609 0.273 0.609 0.609s-0.273 0.609-0.609 0.609c-0 0-0 0-0 0h-0.002c-0.335-0.002-0.606-0.274-0.606-0.609 0-0.169 0.069-0.322 0.18-0.432l0-0h-0.001zM41.157 12.422l-0.342 1.683-0.672-0.675 1.014-1.008zM40.811 11.906l-1.097 1.091-0.849-0.853 1.946-0.237zM42.288 23.314c0.505 0 0.914 0.409 0.914 0.914v0.305h-13.409v-0.305c0-0.505 0.409-0.914 0.914-0.914v0h11.581zM38.021 22.095v0.61h-3.048v-0.61h3.048zM34.974 21.486v-2.316c0-0.739 0.684-1.341 1.524-1.341s1.524 0.602 1.524 1.341v2.316h-3.048zM38.631 20.517v-1.347c0-1.075-0.957-1.95-2.133-1.95-0.010-0-0.022-0-0.033-0-0.773 0-1.451 0.404-1.836 1.012l-0.005 0.009c-1.348-1.418-2.178-3.341-2.178-5.457 0-1.322 0.324-2.569 0.897-3.665l-0.021 0.044 10.63 10.691c-1.042 0.541-2.274 0.858-3.581 0.858-0.616 0-1.216-0.071-1.792-0.204l0.053 0.010zM45.082 20.126l-0.429-0.431-11.603-11.672 0.431-0.43 4.534 4.56c0.002 0 0.003 0.004 0.006 0.005l7.494 7.538-0.433 0.43z"></path>
<path fill="#4d5ae5" d="M36.5 18.438h-0.003c-0 0-0.001 0-0.001 0-0.505 0-0.914 0.409-0.914 0.914s0.409 0.914 0.913 0.914h0.003c0 0 0.001 0 0.001 0 0.505 0 0.914-0.409 0.914-0.914s-0.409-0.913-0.913-0.914h-0zM36.714 19.569c-0.055 0.055-0.131 0.089-0.215 0.089-0.168 0-0.305-0.137-0.305-0.305s0.136-0.304 0.304-0.305h0c0.168 0.001 0.303 0.137 0.303 0.305 0 0.084-0.034 0.161-0.090 0.216v0h0.003z"></path>
</svg>
