<!-- Generated by IcoMoon.io -->
<svg version="1.1" xmlns="http://www.w3.org/2000/svg" width="61" height="32" viewBox="0 0 61 32">
<title>clients-two</title>
<path fill="#8e8f99" d="M29.86 7.976h-0.050c-0.063-0.004-0.143-0.007-0.223-0.008l-0.006-0h-0.165c-0.144 0-0.292 0.004-0.438 0.011-0.005-0-0.011-0.001-0.017-0.001s-0.012 0-0.017 0.001l0.001-0c-1.404 0.082-2.707 0.433-3.885 1.002l0.061-0.027-0.157 0.076v8.052l0.368-0.125c0.323-0.111 0.667-0.211 1.023-0.303 0.88-0.235 1.892-0.377 2.935-0.391l0.008-0v1.058c-0.132 0.001-0.259 0.004-0.387 0.011h-0.031c-0.827 0.046-1.601 0.171-2.347 0.366l0.082-0.018c-1.025 0.261-1.923 0.621-2.757 1.082l0.059-0.030v-10.326c0.815-0.484 1.758-0.879 2.756-1.135l0.075-0.016c0.8-0.215 1.718-0.34 2.665-0.344h0.158c0.186 0.005 0.367 0.013 0.537 0.026 0.448 0.032 0.893 0.103 1.329 0.212v1.041c-0.371-0.091-0.811-0.16-1.261-0.193l-0.027-0.002-0.027-0.002c-0.077-0.008-0.168-0.014-0.26-0.016l-0.003-0zM31.692 9.040c0.231 0.018 0.47 0.026 0.712 0.026 0.998-0.004 1.964-0.135 2.885-0.378l-0.080 0.018c1.025-0.261 1.922-0.622 2.757-1.082l-0.060 0.030v10.142c-0.815 0.484-1.758 0.879-2.756 1.135l-0.075 0.016c-0.8 0.214-1.718 0.339-2.666 0.343h-0.002c-0.019 0-0.042 0-0.066 0-0.695 0-1.37-0.087-2.014-0.251l0.056 0.012v-10.208c0.156 0.036 0.317 0.069 0.481 0.097 0.269 0.045 0.552 0.079 0.828 0.099zM36.853 9.119l-0.368 0.124c-0.338 0.114-0.68 0.216-1.023 0.306-0.916 0.245-1.969 0.388-3.054 0.392h-0.002c-0.24 0-0.461-0.007-0.674-0.020l-0.293-0.019v8.283l0.252 0.022c0.233 0.021 0.475 0.031 0.717 0.031 0.857-0.004 1.686-0.117 2.476-0.327l-0.068 0.015c0.722-0.183 1.348-0.415 1.941-0.703l-0.060 0.026 0.157-0.076v-8.054z"></path>
<path fill="#8e8f99" d="M24.632 22.259c-0.099-0.102-0.237-0.166-0.39-0.166-0.007 0-0.013 0-0.020 0l0.001-0c-0.002-0-0.005-0-0.008-0-0.082 0-0.161 0.016-0.232 0.046l0.004-0.001c-0.14 0.056-0.248 0.166-0.301 0.303l-0.001 0.004c-0.029 0.073-0.043 0.15-0.042 0.228v1.38c-0.004 0.097 0.015 0.194 0.054 0.283 0.033 0.071 0.080 0.134 0.138 0.185 0.055 0.046 0.12 0.080 0.189 0.098 0.067 0.019 0.137 0.028 0.206 0.028 0.077 0.001 0.153-0.016 0.223-0.048 0.207-0.092 0.349-0.296 0.349-0.533v-0.154h-0.361v0.123c0 0.003 0 0.005 0 0.008 0 0.041-0.008 0.081-0.022 0.117l0.001-0.002c-0.012 0.030-0.030 0.056-0.052 0.078l-0 0c-0.041 0.032-0.094 0.052-0.151 0.053h-0c-0.006 0.001-0.014 0.001-0.021 0.001-0.061 0-0.114-0.029-0.148-0.075l-0-0c-0.030-0.049-0.048-0.108-0.048-0.171 0-0.005 0-0.010 0-0.015l-0 0.001v-1.287c-0.002-0.071 0.013-0.142 0.044-0.206 0.033-0.051 0.090-0.085 0.155-0.085 0.008 0 0.015 0 0.022 0.001l-0.001-0c0.002-0 0.004-0 0.007-0 0.063 0 0.119 0.030 0.154 0.077l0 0c0.037 0.049 0.060 0.11 0.060 0.177 0 0.003-0 0.005-0 0.008v-0 0.119h0.357v-0.141c0-0.002 0-0.004 0-0.006 0-0.085-0.016-0.166-0.046-0.24l0.002 0.004c-0.028-0.075-0.069-0.14-0.121-0.194l0 0zM26.774 22.244c-0.11-0.094-0.253-0.151-0.41-0.152h-0c-0.073 0-0.147 0.013-0.215 0.039-0.149 0.053-0.266 0.163-0.329 0.302l-0.001 0.004c-0.036 0.084-0.055 0.175-0.053 0.267v1.323c-0.002 0.093 0.016 0.185 0.053 0.271 0.033 0.071 0.080 0.134 0.14 0.185 0.055 0.051 0.12 0.091 0.191 0.116 0.069 0.025 0.142 0.039 0.215 0.039 0.158-0 0.301-0.059 0.411-0.156l-0.001 0.001c0.057-0.052 0.104-0.115 0.136-0.185 0.037-0.085 0.055-0.178 0.052-0.271v-1.323c0-0.004 0-0.008 0-0.012 0-0.092-0.019-0.18-0.054-0.259l0.002 0.004c-0.034-0.076-0.079-0.14-0.136-0.193l-0-0zM26.606 24.027c0.001 0.006 0.001 0.013 0.001 0.020 0 0.067-0.028 0.128-0.072 0.171l-0 0c-0.046 0.038-0.105 0.062-0.17 0.062s-0.124-0.023-0.17-0.062l0 0c-0.045-0.043-0.073-0.104-0.073-0.17 0-0.007 0-0.015 0.001-0.022l-0 0.001v-1.323c-0.001-0.006-0.001-0.013-0.001-0.020 0-0.067 0.028-0.128 0.072-0.171l0-0c0.046-0.038 0.105-0.062 0.17-0.062s0.124 0.023 0.17 0.062l-0-0c0.045 0.043 0.073 0.104 0.073 0.171 0 0.007-0 0.014-0.001 0.021l0-0.001v1.324zM29.588 24.618v-2.505h-0.347l-0.456 1.326h-0.006l-0.459-1.326h-0.343v2.505h0.358v-1.524h0.006l0.351 1.077h0.179l0.353-1.077h0.007v1.524h0.358zM31.621 22.289c-0.055-0.062-0.125-0.109-0.202-0.137-0.073-0.025-0.158-0.039-0.246-0.039-0.005 0-0.010 0-0.014 0h-0.531v2.505h0.357v-0.979h0.184c0.112 0.005 0.222-0.019 0.322-0.068 0.082-0.046 0.148-0.111 0.195-0.189l0.001-0.002c0.041-0.067 0.069-0.141 0.082-0.218 0.012-0.079 0.019-0.17 0.019-0.262 0-0.008-0-0.016-0-0.024v0.001c0.004-0.12-0.008-0.241-0.035-0.358-0.025-0.090-0.071-0.168-0.132-0.23l0 0zM31.437 23.052c-0.002 0.048-0.014 0.093-0.034 0.132l0.001-0.002c-0.021 0.038-0.052 0.069-0.091 0.087l-0.001 0.001c-0.044 0.020-0.096 0.032-0.15 0.032-0.006 0-0.013-0-0.019-0l0.001 0h-0.163v-0.852h0.184c0.005-0 0.011-0 0.017-0 0.052 0 0.102 0.012 0.146 0.033l-0.002-0.001c0.037 0.021 0.066 0.053 0.083 0.091l0.001 0.001c0.020 0.044 0.030 0.092 0.031 0.14v0.167c0 0.058 0.004 0.119 0 0.172h-0.004zM33.312 22.113h-0.293l-0.552 2.505h0.357l0.105-0.538h0.487l0.105 0.538h0.357l-0.565-2.505zM32.983 23.739l0.176-0.908h0.007l0.175 0.908h-0.357zM35.618 23.622h-0.007l-0.539-1.509h-0.343v2.505h0.357v-1.507h0.007l0.545 1.506h0.336v-2.505h-0.357v1.509zM37.799 22.113l-0.287 0.996h-0.007l-0.287-0.996h-0.378l0.49 1.447v1.059h0.357v-1.059l0.49-1.446h-0.378zM23.636 25.325h0.172v0.483h0.117v-0.483h0.171v-0.099h-0.46v0.099zM25.083 25.226l-0.225 0.582h0.124l0.048-0.132h0.232l0.049 0.132h0.127l-0.231-0.582h-0.124zM25.064 25.578l0.079-0.216 0.079 0.216h-0.158zM26.512 25.593h0.135v0.075c-0.038 0.030-0.086 0.049-0.138 0.049h-0c-0.003 0-0.005 0-0.008 0-0.047 0-0.088-0.022-0.115-0.056l-0-0c-0.027-0.039-0.043-0.087-0.043-0.139 0-0.005 0-0.009 0-0.014l-0 0.001c0-0.129 0.056-0.194 0.167-0.194 0.004-0 0.008-0.001 0.013-0.001 0.057 0 0.105 0.039 0.119 0.093l0 0.001 0.115-0.022c-0.025-0.114-0.107-0.171-0.247-0.171-0.002-0-0.005-0-0.008-0-0.075 0-0.144 0.028-0.195 0.075l0-0c-0.052 0.051-0.084 0.123-0.084 0.202 0 0.008 0 0.015 0.001 0.023l-0-0.001c-0 0.004-0 0.009-0 0.014 0 0.078 0.028 0.15 0.075 0.205l-0-0c0.051 0.053 0.123 0.086 0.203 0.086 0.006 0 0.013-0 0.019-0.001l-0.001 0c0.003 0 0.006 0 0.010 0 0.091 0 0.175-0.035 0.237-0.093l-0 0v-0.229h-0.252v0.098zM27.972 25.226h-0.118v0.582h0.407v-0.099h-0.289v-0.483zM29.206 25.226h-0.117v0.582h0.117v-0.582zM30.413 25.615l-0.238-0.388h-0.114v0.582h0.109v-0.38l0.234 0.38h0.117v-0.582h-0.108v0.389zM31.504 25.552h0.29v-0.099h-0.29v-0.127h0.312v-0.099h-0.429v0.582h0.441v-0.099h-0.324v-0.157zM34.15 25.456h-0.229v-0.229h-0.116v0.581h0.116v-0.255h0.229v0.255h0.117v-0.582h-0.117v0.229zM35.247 25.552h0.291v-0.099h-0.291v-0.127h0.313v-0.099h-0.429v0.582h0.441v-0.099h-0.324v-0.157zM36.736 25.552c0.101-0.016 0.153-0.069 0.153-0.162 0.001-0.005 0.001-0.011 0.001-0.017 0-0.046-0.023-0.087-0.058-0.112l-0-0c-0.043-0.022-0.094-0.035-0.147-0.035-0.008 0-0.016 0-0.024 0.001l0.001-0h-0.247v0.581h0.117v-0.243h0.023c0.003-0 0.006-0 0.009-0 0.023 0 0.045 0.005 0.064 0.014l-0.001-0c0.017 0.011 0.031 0.025 0.041 0.043l0.127 0.185h0.14l-0.071-0.113c-0.032-0.057-0.075-0.104-0.127-0.139l-0.001-0.001zM36.618 25.471h-0.086v-0.146h0.092c0.007-0.001 0.016-0.001 0.025-0.001 0.034 0 0.066 0.005 0.096 0.015l-0.002-0.001c0.016 0.014 0.025 0.035 0.025 0.057 0 0.013-0.003 0.025-0.009 0.036l0-0c-0.006 0.010-0.013 0.019-0.022 0.025l-0 0c-0.029 0.009-0.063 0.015-0.097 0.015-0.008 0-0.015-0-0.023-0.001l0.001 0zM37.858 25.552h0.289v-0.099h-0.289v-0.127h0.313v-0.099h-0.431v0.582h0.441v-0.099h-0.324v-0.157z"></path>
</svg>
