<!-- Generated by IcoMoon.io -->
<svg version="1.1" xmlns="http://www.w3.org/2000/svg" width="61" height="32" viewBox="0 0 61 32">
<title>clients-three</title>
<path fill="#8e8f99" d="M25.022 23.717c0.006 0 0.012 0.001 0.017 0.004s0.010 0.005 0.015 0.008l-0-0 0.080 0.076c-0.063 0.061-0.138 0.109-0.221 0.142l-0.005 0.002c-0.102 0.036-0.211 0.054-0.32 0.051-0.005 0-0.011 0-0.016 0-0.102 0-0.2-0.018-0.291-0.050l0.006 0.002c-0.088-0.031-0.163-0.078-0.227-0.136l0 0c-0.062-0.057-0.111-0.127-0.145-0.205l-0.002-0.004c-0.032-0.077-0.051-0.167-0.051-0.261 0-0.003 0-0.005 0-0.008v0c-0-0.003-0-0.006-0-0.009 0-0.094 0.020-0.184 0.057-0.265l-0.002 0.004c0.035-0.078 0.088-0.149 0.155-0.209 0.068-0.058 0.148-0.105 0.236-0.135l0.005-0.002c0.090-0.030 0.193-0.048 0.3-0.048 0.004 0 0.007 0 0.011 0h-0.001c0.098-0.002 0.196 0.013 0.288 0.044 0.080 0.030 0.153 0.071 0.216 0.121l-0.067 0.081c-0.005 0.006-0.010 0.011-0.017 0.014l-0 0c-0.007 0.004-0.015 0.006-0.023 0.006-0.001 0-0.003-0-0.004-0h0c-0.011-0.001-0.021-0.004-0.029-0.009l0 0-0.036-0.021-0.050-0.027c-0.046-0.022-0.099-0.039-0.155-0.048l-0.003-0c-0.033-0.005-0.071-0.008-0.11-0.008-0.004 0-0.007 0-0.011 0h0.001c-0.002-0-0.005-0-0.008-0-0.077 0-0.151 0.013-0.22 0.037l0.005-0.001c-0.067 0.023-0.126 0.058-0.175 0.102l0.001-0c-0.050 0.047-0.089 0.102-0.113 0.161-0.026 0.061-0.041 0.131-0.041 0.206 0 0.003 0 0.005 0 0.007v-0c-0 0.002-0 0.005-0 0.008 0 0.075 0.015 0.146 0.043 0.211l-0.001-0.004c0.052 0.123 0.151 0.217 0.275 0.259l0.003 0.001c0.065 0.023 0.136 0.035 0.207 0.034 0.041 0.001 0.082-0.002 0.123-0.007 0.102-0.010 0.193-0.050 0.266-0.111l-0.001 0.001c0.010-0.008 0.024-0.013 0.038-0.014h0zM27.34 23.338c0.001 0.091-0.017 0.182-0.054 0.267-0.036 0.082-0.087 0.151-0.151 0.207l-0.001 0.001c-0.067 0.059-0.148 0.105-0.237 0.136-0.091 0.030-0.196 0.048-0.305 0.048s-0.214-0.018-0.312-0.050l0.007 0.002c-0.091-0.032-0.17-0.078-0.237-0.137l0.001 0.001c-0.064-0.057-0.116-0.127-0.151-0.205l-0.002-0.004c-0.034-0.079-0.054-0.171-0.054-0.267s0.020-0.188 0.056-0.272l-0.002 0.004c0.035-0.078 0.086-0.149 0.153-0.21 0.067-0.057 0.148-0.102 0.236-0.131 0.196-0.065 0.414-0.065 0.61 0 0.089 0.031 0.17 0.077 0.237 0.136 0.127 0.113 0.206 0.277 0.206 0.459 0 0.006-0 0.011-0 0.017l0-0.001zM27.129 23.338c0.002-0.073-0.011-0.145-0.038-0.215-0.049-0.125-0.149-0.22-0.274-0.261l-0.003-0.001c-0.066-0.022-0.143-0.035-0.222-0.035s-0.156 0.013-0.227 0.037l0.005-0.001c-0.066 0.023-0.123 0.058-0.17 0.102l0-0c-0.047 0.044-0.084 0.097-0.107 0.157l-0.001 0.003c-0.051 0.14-0.051 0.289 0 0.429 0.023 0.059 0.060 0.114 0.108 0.16 0.047 0.044 0.105 0.078 0.17 0.1 0.143 0.046 0.3 0.046 0.444 0 0.064-0.022 0.123-0.056 0.169-0.1 0.048-0.047 0.085-0.101 0.108-0.16 0.027-0.069 0.040-0.142 0.038-0.215zM28.923 23.563l0.021 0.048c0.008-0.017 0.015-0.033 0.023-0.048 0.008-0.016 0.016-0.032 0.026-0.047l0.513-0.796c0.010-0.014 0.019-0.023 0.029-0.025s0.022-0.004 0.034-0.004c0.003 0 0.006 0 0.008 0l-0-0h0.152v1.296h-0.18v-0.993c-0-0.007-0.001-0.015-0.001-0.022s0-0.016 0.001-0.023l-0 0.001-0.516 0.808c-0.007 0.013-0.017 0.023-0.030 0.029l-0 0c-0.013 0.007-0.027 0.011-0.043 0.011-0 0-0 0-0.001 0h-0.029c-0 0-0.001 0-0.001 0-0.016 0-0.031-0.004-0.044-0.011l0 0c-0.013-0.007-0.023-0.017-0.030-0.029l-0-0-0.531-0.813v1.040h-0.174v-1.293h0.152c0.002-0 0.004-0 0.006-0 0.013 0 0.025 0.002 0.036 0.005l-0.001-0c0.012 0.005 0.022 0.014 0.028 0.024l0 0 0.524 0.797c0.011 0.015 0.019 0.030 0.027 0.047zM30.853 23.499v0.485h-0.201v-1.294h0.447c0.085-0.001 0.169 0.008 0.25 0.028 0.065 0.016 0.125 0.043 0.177 0.080 0.043 0.033 0.077 0.076 0.099 0.125l0.001 0.002c0.024 0.053 0.035 0.109 0.034 0.165 0 0.002 0 0.004 0 0.006 0 0.118-0.057 0.223-0.145 0.288l-0.001 0.001c-0.051 0.038-0.11 0.068-0.175 0.085l-0.004 0.001c-0.078 0.021-0.16 0.031-0.241 0.030l-0.243-0.004zM30.853 23.36h0.243c0.053 0 0.105-0.006 0.155-0.020 0.043-0.012 0.081-0.031 0.114-0.056l-0.001 0.001c0.056-0.045 0.092-0.114 0.092-0.192 0-0.001 0-0.002-0-0.003v0c0-0.004 0-0.009 0-0.013 0-0.034-0.008-0.065-0.021-0.094l0.001 0.001c-0.017-0.035-0.041-0.065-0.070-0.088l-0-0c-0.067-0.044-0.15-0.071-0.238-0.071-0.011 0-0.022 0-0.033 0.001l0.001-0h-0.243v0.533zM33.551 23.986h-0.159c-0.001 0-0.002 0-0.003 0-0.015 0-0.030-0.005-0.041-0.012l0 0c-0.011-0.008-0.020-0.018-0.026-0.029l-0-0-0.136-0.313h-0.686l-0.141 0.313c-0.006 0.012-0.014 0.022-0.025 0.029l-0 0c-0.012 0.008-0.027 0.013-0.043 0.013-0.001 0-0.002 0-0.002-0h-0.158l0.602-1.296h0.209l0.61 1.296zM32.557 23.505h0.566l-0.239-0.527c-0.016-0.034-0.032-0.074-0.044-0.116l-0.002-0.006-0.023 0.068c-0.007 0.021-0.015 0.039-0.022 0.055l-0.237 0.527zM34.418 22.696c0.012 0.006 0.022 0.014 0.030 0.023l0 0 0.879 0.977v-1.006h0.18v1.296h-0.1c-0.001 0-0.003 0-0.004 0-0.014 0-0.026-0.003-0.038-0.008l0.001 0c-0.012-0.006-0.023-0.015-0.032-0.024l-0-0-0.877-0.976c0 0.007 0.001 0.015 0.001 0.022s-0 0.016-0.001 0.023l0-0.001v0.963h-0.18v-1.296h0.106c0.012-0 0.025 0.001 0.036 0.006zM36.985 23.471v0.515h-0.201v-0.515l-0.555-0.78h0.18c0.001-0 0.003-0 0.005-0 0.014 0 0.028 0.004 0.039 0.011l-0-0c0.011 0.008 0.020 0.018 0.027 0.029l0.347 0.504c0.023 0.033 0.043 0.071 0.060 0.111l0.002 0.004 0.026-0.056c0.010-0.020 0.021-0.040 0.034-0.059l0.343-0.507c0.007-0.011 0.016-0.020 0.026-0.027l0-0c0.011-0.008 0.025-0.013 0.040-0.013 0.001 0 0.002 0 0.003 0h0.182l-0.556 0.784zM28.823 20.515c0.087 0.009 0.176 0.017 0.265 0.024 1.354-0.517 2.5-1.365 3.294-2.436s1.201-2.318 1.169-3.585l-1.492-1.275c0.303 1.349 0.161 2.744-0.41 4.029s-1.55 2.407-2.826 3.244z"></path>
<path fill="#8e8f99" d="M28.29 20.456l0.040 0.007c1.364-0.833 2.404-1.997 2.985-3.341s0.677-2.805 0.276-4.196l-2.126-1.816c0.86 1.493 1.206 3.164 0.998 4.818s-0.961 3.225-2.173 4.528zM35.5 16.015c-0.361 1.393-1.239 2.649-2.501 3.582-0.344 0.258-0.733 0.5-1.143 0.708l-0.045 0.021c1.028-0.258 1.974-0.715 2.763-1.335s1.401-1.386 1.789-2.24l-0.862-0.736z"></path>
<path fill="#8e8f99" d="M35.162 15.81l-1.228-1.049c-0.024 1.196-0.421 2.364-1.152 3.384s-1.768 1.854-3.004 2.416h0.006c0.275 0 0.551-0.014 0.824-0.042 1.155-0.403 2.175-1.044 2.97-1.865s1.339-1.799 1.584-2.844zM28.468 10.344l-1.464-1.253c-1.309 0.432-2.435 1.192-3.231 2.18s-1.223 2.159-1.227 3.357c0.005 1.325 0.527 2.611 1.484 3.654s2.293 1.784 3.797 2.105c1.343-1.399 2.13-3.126 2.245-4.932s-0.447-3.596-1.604-5.111zM38.545 15.617c-0.005-1.572-0.739-3.079-2.040-4.19s-3.064-1.738-4.904-1.743c-0.005 0-0.010 0-0.016 0-0.883 0-1.733 0.145-2.526 0.412l0.056-0.016 8.967 7.661c0.292-0.623 0.463-1.353 0.464-2.123v-0z"></path>
</svg>
