<!-- Generated by IcoMoon.io -->
<svg version="1.1" xmlns="http://www.w3.org/2000/svg" width="32" height="32" viewBox="0 0 32 32">
<title>footer-tweet</title>
<path fill="#4d5ae5" d="M32 16c0 0.006 0 0.013 0 0.021 0 4.412-1.791 8.405-4.686 11.293l-0 0c-2.888 2.895-6.881 4.686-11.293 4.686-0.007 0-0.015 0-0.022 0h0.001c-0.006 0-0.013 0-0.021 0-4.412 0-8.405-1.791-11.293-4.686l-0-0c-2.895-2.888-4.686-6.881-4.686-11.293 0-0.007 0-0.015 0-0.022v0.001c0-0.006 0-0.013 0-0.020 0-4.412 1.791-8.405 4.686-11.293l0-0c2.888-2.895 6.881-4.686 11.293-4.686 0.007 0 0.014 0 0.021 0h-0.001c0.006 0 0.013 0 0.021 0 4.412 0 8.405 1.791 11.293 4.686l0 0c2.895 2.888 4.686 6.881 4.686 11.293 0 0.007 0 0.015 0 0.022v-0.001z"></path>
<path fill="#f4f4fd" d="M25.6 10.047c-0.714 0.313-1.474 0.52-2.268 0.622 0.816-0.49 1.429-1.247 1.724-2.148l0.008-0.028c-0.718 0.434-1.555 0.764-2.446 0.944l-0.050 0.008c-0.72-0.768-1.741-1.247-2.874-1.247-2.173 0-3.935 1.762-3.935 3.935 0 0.001 0 0.002 0 0.003v-0c0 0.312 0.026 0.613 0.091 0.898-3.273-0.16-6.168-1.728-8.114-4.118-0.338 0.57-0.537 1.256-0.538 1.989v0c0 1.363 0.702 2.572 1.748 3.271-0.655-0.018-1.265-0.196-1.798-0.495l0.020 0.010v0.043c0.002 1.899 1.342 3.484 3.128 3.863l0.026 0.005c-0.32 0.087-0.67 0.13-1.032 0.13-0.018 0-0.040 0.001-0.062 0.001-0.242 0-0.478-0.025-0.706-0.072l0.023 0.004c0.51 1.558 1.957 2.704 3.678 2.742-1.329 1.047-3.027 1.679-4.872 1.679-0.003 0-0.005 0-0.008 0h0c-0.323 0-0.633-0.014-0.942-0.054 1.696 1.108 3.772 1.766 6.003 1.766 0.013 0 0.025-0 0.038-0h-0.002c7.243 0 11.203-6 11.203-11.201 0-0.174-0.006-0.342-0.014-0.509 0.779-0.562 1.434-1.24 1.955-2.015l0.018-0.028z"></path>
</svg>
