<!-- Generated by IcoMoon.io -->
<svg version="1.1" xmlns="http://www.w3.org/2000/svg" width="32" height="32" viewBox="0 0 32 32">
<title>footer-insta</title>
<path fill="#4d5ae5" d="M32 16c0 0.006 0 0.013 0 0.021 0 4.412-1.791 8.405-4.686 11.293l-0 0c-2.888 2.895-6.881 4.686-11.293 4.686-0.007 0-0.015 0-0.022 0h0.001c-0.006 0-0.013 0-0.021 0-4.412 0-8.405-1.791-11.293-4.686l-0-0c-2.895-2.888-4.686-6.881-4.686-11.293 0-0.007 0-0.015 0-0.022v0.001c0-0.006 0-0.013 0-0.020 0-4.412 1.791-8.405 4.686-11.293l0-0c2.888-2.895 6.881-4.686 11.293-4.686 0.007 0 0.014 0 0.021 0h-0.001c0.006 0 0.013 0 0.021 0 4.412 0 8.405 1.791 11.293 4.686l0 0c2.895 2.888 4.686 6.881 4.686 11.293 0 0.007 0 0.015 0 0.022v-0.001z"></path>
<path fill="#f4f4fd" d="M25.582 12.045c-0.046-1.020-0.21-1.722-0.446-2.329-0.254-0.667-0.632-1.235-1.11-1.702l-0.001-0.001c-0.468-0.475-1.035-0.851-1.667-1.095l-0.032-0.011c-0.611-0.236-1.309-0.402-2.33-0.446-1.027-0.048-1.354-0.060-3.96-0.060s-2.934 0.011-3.958 0.056c-1.020 0.046-1.722 0.21-2.329 0.446-0.667 0.254-1.235 0.632-1.702 1.11l-0.001 0.001c-0.475 0.468-0.851 1.035-1.095 1.667l-0.011 0.032c-0.236 0.611-0.402 1.309-0.446 2.329-0.048 1.028-0.060 1.354-0.060 3.961s0.011 2.934 0.056 3.958c0.046 1.020 0.21 1.721 0.447 2.329 0.256 0.666 0.633 1.234 1.109 1.703l0.001 0.001c0.48 0.488 1.062 0.866 1.699 1.106 0.611 0.236 1.309 0.401 2.33 0.446 1.024 0.045 1.35 0.056 3.957 0.056s2.933-0.011 3.957-0.056c1.020-0.046 1.722-0.21 2.33-0.446 1.294-0.51 2.299-1.515 2.797-2.776l0.012-0.033c0.237-0.611 0.402-1.309 0.446-2.329 0.045-1.024 0.056-1.35 0.056-3.958s-0.003-2.933-0.048-3.957zM23.852 19.884c-0.041 0.938-0.198 1.444-0.33 1.782-0.331 0.84-0.983 1.492-1.802 1.815l-0.022 0.008c-0.338 0.132-0.848 0.289-1.782 0.33-1.013 0.045-1.316 0.056-3.878 0.056s-2.869-0.011-3.878-0.056c-0.938-0.042-1.444-0.198-1.782-0.33-0.432-0.161-0.801-0.405-1.102-0.715l-0.001-0.001c-0.31-0.302-0.554-0.67-0.71-1.082l-0.007-0.021c-0.131-0.338-0.288-0.848-0.33-1.782-0.045-1.013-0.056-1.317-0.056-3.878s0.011-2.87 0.056-3.878c0.041-0.938 0.198-1.444 0.33-1.782 0.154-0.416 0.398-0.795 0.72-1.103 0.303-0.31 0.671-0.554 1.083-0.709l0.021-0.007c0.337-0.131 0.847-0.288 1.781-0.33 1.013-0.045 1.317-0.056 3.878-0.056 2.566 0 2.87 0.011 3.878 0.056 0.938 0.042 1.444 0.199 1.782 0.33 0.416 0.154 0.795 0.398 1.102 0.716 0.319 0.312 0.562 0.686 0.717 1.103 0.131 0.338 0.288 0.848 0.33 1.782 0.045 1.013 0.056 1.317 0.056 3.878s-0.011 2.862-0.056 3.874z"></path>
<path fill="#f4f4fd" d="M16.035 11.070c-2.723 0.001-4.931 2.209-4.932 4.932v0c0 2.724 2.208 4.932 4.932 4.933h0c2.724-0 4.932-2.209 4.933-4.933v-0c-0.001-2.724-2.209-4.932-4.933-4.932h-0zM16.035 19.202c-1.767-0-3.199-1.433-3.199-3.2s1.433-3.2 3.2-3.2c0 0 0.001 0 0.001 0h-0c1.767 0 3.199 1.433 3.199 3.2s-1.433 3.2-3.2 3.2c-0 0-0.001 0-0.001 0h0zM22.314 10.874c0 0.009 0 0.020 0 0.030 0 0.636-0.516 1.152-1.152 1.152s-1.152-0.516-1.152-1.152c0-0.011 0-0.021 0-0.032l-0 0.002c0.017-0.623 0.526-1.122 1.152-1.122s1.135 0.499 1.152 1.12l0 0.002z"></path>
</svg>
